<?xml version="1.0" encoding="UTF-8"?><svg id="Ebene_1" xmlns="http://www.w3.org/2000/svg" viewBox="0 0 4702.63 1581.47"><defs><style>.cls-1{fill:#fff;}</style></defs><path class="cls-1" d="M653.04,1581.47c-40.36,0-80.33-4.89-119.97-14.6-39.64-9.72-75.83-26.08-108.49-49.03-32.7-22.95-60.5-51.12-83.45-84.5-22.95-33.38-41.4-69.18-55.29-107.45-13.92-38.24-22.95-77.19-27.12-116.84-4.17-39.64-6.26-79.61-6.26-119.97v-398.5H0v-210.72H252.45V31.3h246.19V479.87h340.08v210.72H498.64v398.5c0,19.49,.68,39.31,2.09,59.46,1.37,20.18,4.17,40,8.35,59.46,4.17,19.5,9.39,38.6,15.65,57.37,6.26,18.78,15.29,36.19,27.12,52.16,11.8,16.01,26.41,28.88,43.81,38.6,17.38,9.75,36.51,14.61,57.38,14.61,23.63,0,45.9-6.26,66.76-18.78s37.2-29.21,49.03-50.07c11.8-20.86,20.15-43.1,25.04-66.77,4.86-23.63,7.3-47.27,7.3-70.94v-12.52h248.28v22.95c0,36.18-3.85,71.98-11.47,107.45-7.66,35.47-19.14,69.21-34.42,101.19-15.32,32.01-35.14,61.22-59.46,87.63-24.35,26.44-52.52,48.35-84.5,65.72-32.01,17.41-65.72,29.21-101.19,35.47-35.47,6.26-70.61,9.39-105.36,9.39Z"/><path class="cls-1" d="M1748.36,1581.47c-41.73,0-83.45-3.49-125.18-10.43-41.73-6.94-81.73-19.1-119.97-36.51-38.27-17.38-73.02-40.33-104.32-68.85-31.3-28.49-56.69-60.83-76.15-97.02-19.49-36.15-33.38-75.11-41.73-116.84s-12.52-83.45-12.52-125.18v-208.64c0-41.73,3.81-83.1,11.47-124.14,7.63-41.01,21.19-79.97,40.68-116.84,19.46-36.84,44.86-69.53,76.15-98.06,31.3-28.49,65.72-51.44,103.28-68.85,37.56-17.38,76.84-29.54,117.88-36.51,41.01-6.94,82.41-10.43,124.14-10.43s83.1,3.49,124.14,10.43c41.01,6.98,80.33,19.14,117.88,36.51,37.56,17.41,71.98,40.36,103.28,68.85,31.3,28.52,56.66,61.22,76.15,98.06,19.46,36.87,33.02,75.83,40.68,116.84,7.63,41.04,11.47,82.41,11.47,124.14v208.64h-698.94c0,32.01,4.17,63.63,12.52,94.93,8.35,31.29,23.28,58.78,44.86,82.41,21.55,23.67,47.99,40.69,79.28,51.12,31.3,10.43,62.92,15.65,94.93,15.65,22.23,0,45.18-1.73,68.85-5.22,23.64-3.46,45.9-10.07,66.76-19.82,20.86-9.71,38.92-23.99,54.25-42.77,15.29-18.78,23.63-39.28,25.04-61.55h248.28c-2.8,34.78-10.79,69.21-23.99,103.28-13.24,34.1-31.3,64.68-54.24,91.8-22.95,27.12-49.39,50.43-79.28,69.9-29.93,19.49-61.91,34.78-95.97,45.9-34.1,11.15-68.85,18.78-104.32,22.95-35.47,4.17-70.61,6.26-105.36,6.26Zm-231.59-663.47h450.66c0-31.98-4.17-63.63-12.52-94.93-8.35-31.3-22.95-58.74-43.81-82.41-20.86-23.63-46.26-40.68-76.15-51.12-29.93-10.43-60.86-15.65-92.84-15.65s-62.95,5.22-92.84,15.65c-29.93,10.43-55.29,27.48-76.15,51.12-20.86,23.67-35.47,51.12-43.81,82.41-8.35,31.3-12.52,62.95-12.52,94.93Z"/><path class="cls-1" d="M2574.55,1564.78v-210.72h312.96V690.59h-279.57v-210.72h525.77v874.19h279.57v210.72h-838.72Zm419.36-1230.96c-22.27,0-44.53-3.46-66.76-10.43-22.27-6.94-41.04-18.06-56.33-33.38-15.32-15.29-26.44-34.07-33.38-56.33-6.98-22.23-10.43-44.5-10.43-66.76s3.46-44.5,10.43-66.76c6.94-22.23,18.06-41.01,33.38-56.33,15.29-15.29,34.07-26.41,56.33-33.38,22.23-6.94,44.5-10.43,66.76-10.43s44.5,3.49,66.76,10.43c22.23,6.98,41.01,18.09,56.33,33.38,15.29,15.32,26.41,34.1,33.38,56.33,6.94,22.27,10.43,44.53,10.43,66.76s-3.49,44.53-10.43,66.76c-6.98,22.27-18.09,41.04-33.38,56.33-15.32,15.32-34.1,26.44-56.33,33.38-22.27,6.98-44.53,10.43-66.76,10.43Z"/><path class="cls-1" d="M4118.45,1581.47c-44.53,0-88.67-5.57-132.49-16.69-43.81-11.12-82.41-31.3-115.79-60.51-33.38-29.21-58.09-65-74.07-107.45-16-42.41-23.99-85.87-23.99-130.4,0-38.92,6.26-77.88,18.78-116.84,12.52-38.92,32.34-73.35,59.46-103.28,27.12-29.89,58.42-54.25,93.89-73.02s72.31-33.71,110.58-44.86c38.24-11.12,77.2-18.78,116.84-22.95,39.64-4.17,79.61-6.26,119.96-6.26h162.74v-52.16c0-26.41-5.58-51.8-16.69-76.15-11.15-24.32-27.12-43.81-47.99-58.42s-44.17-24.68-69.89-30.25c-25.75-5.54-51.83-8.35-78.24-8.35-23.67,0-47.66,2.09-71.98,6.26-24.35,4.17-46.62,12.52-66.76,25.04-20.18,12.52-36.87,29.57-50.07,51.12-13.24,21.58-19.82,44.17-19.82,67.81h-248.28c0-36.15,5.9-71.98,17.73-107.45,11.8-35.47,28.49-67.81,50.07-97.02,21.55-29.21,47.63-54.24,78.24-75.11,30.58-20.86,62.92-37.2,97.02-49.03,34.07-11.8,69.18-20.15,105.36-25.04,36.15-4.86,72.31-7.3,108.49-7.3s75.44,2.45,113.71,7.3c38.24,4.89,75.11,13.92,110.58,27.12,35.47,13.24,68.49,30.97,99.1,53.2,30.58,22.27,56.66,49.03,78.24,80.33,21.55,31.3,36.84,65.72,45.9,103.28,9.03,37.55,13.56,75.11,13.56,112.66v717.71h-248.28v-169c-15.32,30.61-35.14,58.09-59.46,82.41s-51.47,44.53-81.37,60.51c-29.93,16.01-61.55,27.12-94.93,33.38-33.38,6.26-66.76,9.39-100.15,9.39Zm98.06-210.72c29.21,0,58.42-3.13,87.63-9.39,29.21-6.26,55.62-18.42,79.28-36.51,23.64-18.06,41.37-41.01,53.2-68.85,11.8-27.81,17.73-56.33,17.73-85.54v-60.51h-162.74c-18.09,0-36.51,.72-55.29,2.09-18.78,1.4-37.23,3.49-55.29,6.26-18.09,2.8-36.18,6.62-54.25,11.48-18.09,4.89-35.14,12.19-51.12,21.91-16.01,9.75-29.21,22.62-39.64,38.6-10.43,16.01-15.65,33.06-15.65,51.12,0,22.27,6.26,42.77,18.78,61.55,12.52,18.78,28.49,33.38,47.99,43.81,19.46,10.43,40.32,17.05,62.59,19.82,22.23,2.81,44.5,4.17,66.76,4.17Z"/></svg>